  0
SECTION
  2
HEADER
  9
$ACADVER
  1
AC1009
  9
$DWGCODEPAGE
  3
ansi_1252
  9
$INSBASE
 10
0.0
 20
0.0
 30
0.0
  9
$EXTMIN
 10
15.23775036521323
 20
20.05950140890964
 30
0.0
  9
$EXTMAX
 10
18.61775036521324
 20
22.91016782884546
 30
0.0
  9
$LIMMIN
 10
0.0
 20
0.0
  9
$LIMMAX
 10
44.0
 20
34.0
  9
$ORTHOMODE
 70
     0
  9
$REGENMODE
 70
     1
  9
$FILLMODE
 70
     1
  9
$QTEXTMODE
 70
     0
  9
$MIRRTEXT
 70
     1
  9
$DRAGMODE
 70
     2
  9
$LTSCALE
 40
1.0
  9
$OSMODE
 70
     1
  9
$ATTMODE
 70
     1
  9
$TEXTSIZE
 40
0.1377952755905512
  9
$TRACEWID
 40
0.05
  9
$TEXTSTYLE
  7
STANDARD
  9
$CLAYER
  8
0
  9
$CELTYPE
  6
BYLAYER
  9
$CECOLOR
 62
   256
  9
$DIMSCALE
 40
1.0
  9
$DIMASZ
 40
0.13
  9
$DIMEXO
 40
0.0393700787401575
  9
$DIMDLI
 40
0.38
  9
$DIMRND
 40
0.0
  9
$DIMDLE
 40
0.0
  9
$DIMEXE
 40
0.0393700787401575
  9
$DIMTP
 40
0.0
  9
$DIMTM
 40
0.0
  9
$DIMTXT
 40
0.1377952755905512
  9
$DIMCEN
 40
0.09
  9
$DIMTSZ
 40
0.0
  9
$DIMTOL
 70
     0
  9
$DIMLIM
 70
     0
  9
$DIMTIH
 70
     1
  9
$DIMTOH
 70
     1
  9
$DIMSE1
 70
     0
  9
$DIMSE2
 70
     0
  9
$DIMTAD
 70
     1
  9
$DIMZIN
 70
     0
  9
$DIMBLK
  1

  9
$DIMASO
 70
     1
  9
$DIMSHO
 70
     1
  9
$DIMPOST
  1

  9
$DIMAPOST
  1

  9
$DIMALT
 70
     0
  9
$DIMALTD
 70
     2
  9
$DIMALTF
 40
25.4
  9
$DIMLFAC
 40
1.0
  9
$DIMTOFL
 70
     0
  9
$DIMTVP
 40
0.0
  9
$DIMTIX
 70
     0
  9
$DIMSOXD
 70
     0
  9
$DIMSAH
 70
     0
  9
$DIMBLK1
  1

  9
$DIMBLK2
  1

  9
$DIMSTYLE
  2
STANDARD
  9
$DIMCLRD
 70
     0
  9
$DIMCLRE
 70
     0
  9
$DIMCLRT
 70
     0
  9
$DIMTFAC
 40
1.0
  9
$DIMGAP
 40
0.06
  9
$LUNITS
 70
     2
  9
$LUPREC
 70
     2
  9
$SKETCHINC
 40
0.1
  9
$FILLETRAD
 40
0.5
  9
$AUNITS
 70
     0
  9
$AUPREC
 70
     2
  9
$MENU
  1
.
  9
$ELEVATION
 40
0.0
  9
$PELEVATION
 40
0.0
  9
$THICKNESS
 40
0.0
  9
$LIMCHECK
 70
     0
  9
$CHAMFERA
 40
0.0
  9
$CHAMFERB
 40
0.0
  9
$SKPOLY
 70
     0
  9
$TDCREATE
 40
2458016.338661158
  9
$TDUPDATE
 40
2458016.35305971
  9
$TDINDWG
 40
0.0018705556
  9
$TDUSRTIMER
 40
2458016.519615139
  9
$USRTIMER
 70
     1
  9
$ANGBASE
 50
0.0
  9
$ANGDIR
 70
     0
  9
$PDMODE
 70
     0
  9
$PDSIZE
 40
-1.0
  9
$PLINEWID
 40
0.0
  9
$COORDS
 70
     1
  9
$SPLFRAME
 70
     0
  9
$SPLINETYPE
 70
     6
  9
$SPLINESEGS
 70
     8
  9
$ATTDIA
 70
     0
  9
$ATTREQ
 70
     1
  9
$HANDLING
 70
     1
  9
$HANDSEED
  5
19F
  9
$SURFTAB1
 70
     6
  9
$SURFTAB2
 70
     6
  9
$SURFTYPE
 70
     6
  9
$SURFU
 70
     6
  9
$SURFV
 70
     6
  9
$UCSNAME
  2

  9
$UCSORG
 10
0.0
 20
0.0
 30
0.0
  9
$UCSXDIR
 10
1.0
 20
0.0
 30
0.0
  9
$UCSYDIR
 10
0.0
 20
1.0
 30
0.0
  9
$PUCSNAME
  2

  9
$PUCSORG
 10
0.0
 20
0.0
 30
0.0
  9
$PUCSXDIR
 10
1.0
 20
0.0
 30
0.0
  9
$PUCSYDIR
 10
0.0
 20
1.0
 30
0.0
  9
$USERI1
 70
     0
  9
$USERI2
 70
     0
  9
$USERI3
 70
     0
  9
$USERI4
 70
     0
  9
$USERI5
 70
     0
  9
$USERR1
 40
0.0
  9
$USERR2
 40
0.0
  9
$USERR3
 40
0.0
  9
$USERR4
 40
0.0
  9
$USERR5
 40
0.0
  9
$WORLDVIEW
 70
     1
  9
$SHADEDGE
 70
     3
  9
$SHADEDIF
 70
    70
  9
$TILEMODE
 70
     1
  9
$MAXACTVP
 70
    64
  9
$PLIMCHECK
 70
     0
  9
$PEXTMIN
 10
1.000000000000000E+20
 20
1.000000000000000E+20
 30
1.000000000000000E+20
  9
$PEXTMAX
 10
-1.000000000000000E+20
 20
-1.000000000000000E+20
 30
-1.000000000000000E+20
  9
$PLIMMIN
 10
0.0
 20
0.0
  9
$PLIMMAX
 10
0.0
 20
0.0
  9
$UNITMODE
 70
     0
  9
$VISRETAIN
 70
     1
  9
$PLINEGEN
 70
     0
  9
$PSLTSCALE
 70
     1
  0
ENDSEC
  0
SECTION
  2
TABLES
  0
TABLE
  2
VPORT
 70
     1
  0
VPORT
  2
*ACTIVE
 70
     0
 10
0.0
 20
0.0
 11
1.0
 21
1.0
 12
16.92773802460581
 22
21.48486243317841
 13
0.0
 23
0.0
 14
0.5
 24
0.5
 15
0.5
 25
0.5
 16
0.0
 26
0.0
 36
1.0
 17
0.0
 27
0.0
 37
0.0
 40
2.907623007160791
 41
1.744578313253012
 42
50.0
 43
0.0
 44
0.0
 50
0.0
 51
0.0
 71
    16
 72
  2000
 73
     1
 74
     2
 75
     0
 76
     0
 77
     0
 78
     0
  0
ENDTAB
  0
TABLE
  2
LTYPE
 70
     6
  0
LTYPE
  2
CONTINUOUS
 70
     0
  3
Solid line
 72
    65
 73
     0
 40
0.0
  0
LTYPE
  2
HIDDEN
 70
     0
  3
Hidden __ __ __ __ __ __ __ __ __ __ __ __ __ __
 72
    65
 73
     2
 40
0.075
 49
0.05
 49
-0.025
  0
LTYPE
  2
PHANTOM
 70
     0
  3
Phantom ______  __  __  ______  __  __  ______
 72
    65
 73
     6
 40
0.4999999999999999
 49
0.25
 49
-0.05
 49
0.05
 49
-0.05
 49
0.05
 49
-0.05
  0
LTYPE
  2
CENTER
 70
     0
  3
Center ____ _ ____ _ ____ _ ____ _ ____ _ ____
 72
    65
 73
     4
 40
0.4
 49
0.25
 49
-0.05
 49
0.05
 49
-0.05
  0
LTYPE
  2
CENTERX2
 70
     0
  3
Center (2x) ________  __  ________  __  _____
 72
    65
 73
     4
 40
0.7999999999999999
 49
0.5
 49
-0.1
 49
0.1
 49
-0.1
  0
LTYPE
  2
DOT2
 70
     0
  3
Dot (.5x) ........................................
 72
    65
 73
     2
 40
0.025
 49
0.0
 49
-0.025
  0
ENDTAB
  0
TABLE
  2
LAYER
 70
     2
  0
LAYER
  2
0
 70
     0
 62
     7
  6
CONTINUOUS
  0
LAYER
  2
FORMAT
 70
     0
 62
     7
  6
CONTINUOUS
  0
ENDTAB
  0
TABLE
  2
STYLE
 70
     5
  0
STYLE
  2
STANDARD
 70
     0
 40
0.0
 41
1.0
 50
0.0
 71
     0
 42
0.1377952755905512
  3
txt
  4

  0
STYLE
  2
SLDTEXTSTYLE0
 70
     0
 40
0.0
 41
0.75
 50
0.0
 71
     0
 42
0.1377952755905512
  3
TXT
  4

  0
STYLE
  2
SLDTEXTSTYLE1
 70
     0
 40
0.0
 41
0.6875
 50
0.0
 71
     0
 42
0.1377952755905512
  3
TXT
  4

  0
STYLE
  2
SLDTEXTSTYLE2
 70
     0
 40
0.0
 41
0.6944444444444444
 50
0.0
 71
     0
 42
0.1377952755905512
  3
TXT
  4

  0
STYLE
  2
SLDTEXTSTYLE3
 70
     0
 40
0.0
 41
0.7
 50
0.0
 71
     0
 42
0.1377952755905512
  3
TXT
  4

  0
ENDTAB
  0
TABLE
  2
VIEW
 70
     0
  0
ENDTAB
  0
TABLE
  2
UCS
 70
     0
  0
ENDTAB
  0
TABLE
  2
APPID
 70
     1
  0
APPID
  2
ACAD
 70
     0
  0
ENDTAB
  0
TABLE
  2
DIMSTYLE
 70
     1
  0
DIMSTYLE
  2
STANDARD
 70
     0
  3

  4

  5

  6

  7

 40
1.0
 41
0.18
 42
0.0625
 43
0.38
 44
0.18
 45
0.0
 46
0.0
 47
0.0
 48
0.0
140
0.18
141
0.09
142
0.0
143
25.4
144
1.0
145
0.0
146
1.0
147
0.09
 71
     0
 72
     0
 73
     1
 74
     1
 75
     0
 76
     0
 77
     0
 78
     0
170
     0
171
     2
172
     0
173
     0
174
     0
175
     0
176
     0
177
     0
178
     0
  0
ENDTAB
  0
ENDSEC
  0
SECTION
  2
BLOCKS
  0
BLOCK
  8
0
  2
$MODEL_SPACE
 70
     0
 10
0.0
 20
0.0
 30
0.0
  3
$MODEL_SPACE
  1

  0
ENDBLK
  5
21
  8
0
  0
BLOCK
 67
     1
  8
0
  2
$PAPER_SPACE
 70
     0
 10
0.0
 20
0.0
 30
0.0
  3
$PAPER_SPACE
  1

  0
ENDBLK
  5
1D
 67
     1
  8
0
  0
BLOCK
  8
0
  2
SW_NOTE_0
 70
     0
 10
0.0
 20
0.0
 30
0.0
  3
SW_NOTE_0
  1

  0
TEXT
  5
DD
  8
0
  6
CONTINUOUS
 62
     0
 10
0.0
 20
0.0173440643863179
 30
0.0
 40
0.06
  1
INTERPRET GEOMETRIC
 41
0.75
  7
SLDTEXTSTYLE0
  0
TEXT
  5
DE
  8
0
  6
CONTINUOUS
 62
     0
 10
0.0
 20
-0.0820260101821011
 30
0.0
 40
0.06
  1
TOLERANCING PER:
 41
0.75
  7
SLDTEXTSTYLE0
  0
ENDBLK
  5
DC
  8
0
  0
BLOCK
  8
0
  2
SW_NOTE_1
 70
     0
 10
0.0
 20
0.0
 30
0.0
  3
SW_NOTE_1
  1

  0
TEXT
  5
E3
  8
0
  6
CONTINUOUS
 62
     0
 10
0.0
 20
0.0187894030851778
 30
0.0
 40
0.065
  1
DIMENSIONS ARE IN INCHES
 41
0.75
  7
SLDTEXTSTYLE0
  0
TEXT
  5
E4
  8
0
  6
CONTINUOUS
 62
     0
 10
0.0
 20
-0.085580672889465
 30
0.0
 40
0.065
  1
TOLERANCES:
 41
0.75
  7
SLDTEXTSTYLE0
  0
TEXT
  5
E5
  8
0
  6
CONTINUOUS
 62
     0
 10
0.0
 20
-0.1899507488641077
 30
0.0
 40
0.065
  1
FRACTIONAL
 41
0.75
  7
SLDTEXTSTYLE0
  0
TEXT
  5
E6
  8
0
  6
CONTINUOUS
 62
     0
 10
0.5175850508133257
 20
-0.1899507488641077
 30
0.0
 40
0.065
  1
±
 41
0.75
  7
SLDTEXTSTYLE0
  0
TEXT
  5
E7
  8
0
  6
CONTINUOUS
 62
     0
 10
0.0
 20
-0.2943208248387505
 30
0.0
 40
0.065
  1
ANGULAR: MACH
 41
0.75
  7
SLDTEXTSTYLE0
  0
TEXT
  5
E8
  8
0
  6
CONTINUOUS
 62
     0
 10
0.7233732768635112
 20
-0.2943208248387505
 30
0.0
 40
0.065
  1
±
 41
0.75
  7
SLDTEXTSTYLE0
  0
TEXT
  5
E9
  8
0
  6
CONTINUOUS
 62
     0
 10
0.9071607683117953
 20
-0.2943208248387505
 30
0.0
 40
0.065
  1
BEND
 41
0.75
  7
SLDTEXTSTYLE0
  0
TEXT
  5
EA
  8
0
  6
CONTINUOUS
 62
     0
 10
1.147841286706174
 20
-0.2943208248387505
 30
0.0
 40
0.065
  1
±
 41
0.75
  7
SLDTEXTSTYLE0
  0
TEXT
  5
EB
  8
0
  6
CONTINUOUS
 62
     0
 10
0.0
 20
-0.3986909008133933
 30
0.0
 40
0.065
  1
TWO PLACE DECIMAL
 41
0.75
  7
SLDTEXTSTYLE0
  0
TEXT
  5
EC
  8
0
  6
CONTINUOUS
 62
     0
 10
0.9794349188175727
 20
-0.3986909008133933
 30
0.0
 40
0.065
  1
±
 41
0.75
  7
SLDTEXTSTYLE0
  0
TEXT
  5
ED
  8
0
  6
CONTINUOUS
 62
     0
 10
0.0
 20
-0.5030609767880361
 30
0.0
 40
0.065
  1
THREE PLACE DECIMAL
 41
0.75
  7
SLDTEXTSTYLE0
  0
TEXT
  5
EE
  8
0
  6
CONTINUOUS
 62
     0
 10
0.9738037905355138
 20
-0.5030609767880361
 30
0.0
 40
0.065
  1
±
 41
0.75
  7
SLDTEXTSTYLE0
  0
ENDBLK
  5
E2
  8
0
  0
BLOCK
  8
0
  2
SW_NOTE_2
 70
     0
 10
0.0
 20
0.0
 30
0.0
  3
SW_NOTE_2
  1

  0
TEXT
  5
F7
  8
0
  6
CONTINUOUS
 62
     0
 10
0.0
 20
0.0173440643863179
 30
0.0
 40
0.06
  1
THE INFORMATION CONTAINED IN THIS
 41
0.75
  7
SLDTEXTSTYLE0
  0
TEXT
  5
F8
  8
0
  6
CONTINUOUS
 62
     0
 10
0.0
 20
-0.0820260101821011
 30
0.0
 40
0.06
  1
DRAWING IS THE SOLE PROPERTY OF
 41
0.75
  7
SLDTEXTSTYLE0
  0
TEXT
  5
F9
  8
0
  6
CONTINUOUS
 62
     0
 10
0.0
 20
-0.1813960847505201
 30
0.0
 40
0.06
  1
<INSERT COMPANY NAME HERE>.  ANY
 41
0.75
  7
SLDTEXTSTYLE0
  0
TEXT
  5
FA
  8
0
  6
CONTINUOUS
 62
     0
 10
0.0
 20
-0.2807661593189391
 30
0.0
 40
0.06
  1
REPRODUCTION IN PART OR AS A WHOLE
 41
0.75
  7
SLDTEXTSTYLE0
  0
TEXT
  5
FB
  8
0
  6
CONTINUOUS
 62
     0
 10
0.0
 20
-0.3801362338873581
 30
0.0
 40
0.06
  1
WITHOUT THE WRITTEN PERMISSION OF
 41
0.75
  7
SLDTEXTSTYLE0
  0
TEXT
  5
FC
  8
0
  6
CONTINUOUS
 62
     0
 10
0.0
 20
-0.4795063084557771
 30
0.0
 40
0.06
  1
<INSERT COMPANY NAME HERE> IS
 41
0.75
  7
SLDTEXTSTYLE0
  0
TEXT
  5
FD
  8
0
  6
CONTINUOUS
 62
     0
 10
0.0
 20
-0.5788763830241961
 30
0.0
 40
0.06
  1
PROHIBITED.
 41
0.75
  7
SLDTEXTSTYLE0
  0
ENDBLK
  5
F6
  8
0
  0
BLOCK
  8
0
  2
SW_CENTERMARKSYMBOL_0
 70
     0
 10
0.0
 20
0.0
 30
0.0
  3
SW_CENTERMARKSYMBOL_0
  1

  0
LINE
  5
131
  8
0
  6
CONTINUOUS
 62
     0
 10
0.0
 20
0.0
 30
0.0
 11
0.0
 21
0.0984251968503916
 31
0.0
  0
LINE
  5
132
  8
0
  6
CONTINUOUS
 62
     0
 10
0.0
 20
0.0
 30
0.0
 11
-0.0984251968503938
 21
0.0
 31
0.0
  0
LINE
  5
133
  8
0
  6
CONTINUOUS
 62
     0
 10
0.0
 20
0.0
 30
0.0
 11
0.0
 21
-0.0984251968503916
 31
0.0
  0
LINE
  5
134
  8
0
  6
CONTINUOUS
 62
     0
 10
0.0
 20
0.0
 30
0.0
 11
0.0984251968503938
 21
0.0
 31
0.0
  0
LINE
  5
135
  8
0
  6
CONTINUOUS
 62
     0
 10
0.0
 20
0.1968503937007876
 30
0.0
 11
0.0
 21
0.3484251968503947
 31
0.0
  0
LINE
  5
136
  8
0
  6
CONTINUOUS
 62
     0
 10
-0.1968503937007876
 20
0.0
 30
0.0
 11
-0.3484251968503925
 21
0.0
 31
0.0
  0
LINE
  5
137
  8
0
  6
CONTINUOUS
 62
     0
 10
0.0
 20
-0.1968503937007876
 30
0.0
 11
0.0
 21
-0.3484251968503947
 31
0.0
  0
LINE
  5
138
  8
0
  6
CONTINUOUS
 62
     0
 10
0.1968503937007876
 20
0.0
 30
0.0
 11
0.3484251968503925
 21
0.0
 31
0.0
  0
ENDBLK
  5
130
  8
0
  0
BLOCK
  8
0
  2
SW_CENTERMARKSYMBOL_1
 70
     0
 10
0.0
 20
0.0
 30
0.0
  3
SW_CENTERMARKSYMBOL_1
  1

  0
LINE
  5
13D
  8
0
  6
CONTINUOUS
 62
     0
 10
0.0
 20
0.0
 30
0.0
 11
0.0
 21
0.0984251968503916
 31
0.0
  0
LINE
  5
13E
  8
0
  6
CONTINUOUS
 62
     0
 10
0.0
 20
0.0
 30
0.0
 11
-0.098425196850396
 21
0.0
 31
0.0
  0
LINE
  5
13F
  8
0
  6
CONTINUOUS
 62
     0
 10
0.0
 20
0.0
 30
0.0
 11
0.0
 21
-0.0984251968503916
 31
0.0
  0
LINE
  5
140
  8
0
  6
CONTINUOUS
 62
     0
 10
0.0
 20
0.0
 30
0.0
 11
0.0984251968503916
 21
0.0
 31
0.0
  0
LINE
  5
141
  8
0
  6
CONTINUOUS
 62
     0
 10
0.0
 20
0.1968503937007876
 30
0.0
 11
0.0
 21
0.3484251968503947
 31
0.0
  0
LINE
  5
142
  8
0
  6
CONTINUOUS
 62
     0
 10
-0.196850393700792
 20
0.0
 30
0.0
 11
-0.3484251968503947
 21
0.0
 31
0.0
  0
LINE
  5
143
  8
0
  6
CONTINUOUS
 62
     0
 10
0.0
 20
-0.1968503937007876
 30
0.0
 11
0.0
 21
-0.3484251968503947
 31
0.0
  0
LINE
  5
144
  8
0
  6
CONTINUOUS
 62
     0
 10
0.1968503937007832
 20
0.0
 30
0.0
 11
0.3484251968503903
 21
0.0
 31
0.0
  0
ENDBLK
  5
13C
  8
0
  0
ENDSEC
  0
SECTION
  2
ENTITIES
  0
ARC
  5
11F
  8
0
  6
CONTINUOUS
 62
     7
 10
16.92775036521324
 20
21.6697790838829
 30
0.0
 40
0.0975000000000009
 50
0.0
 51
180.0
  0
LINE
  5
120
  8
0
  6
CONTINUOUS
 62
     7
 10
16.83025036521324
 20
21.6697790838829
 30
0.0
 11
16.83025036521324
 21
20.44950140890964
 31
0.0
  0
ARC
  5
121
  8
0
  6
CONTINUOUS
 62
     7
 10
16.92775036521324
 20
20.44950140890964
 30
0.0
 40
0.0975000000000018
 50
180.0
 51
0.0
  0
LINE
  5
122
  8
0
  6
CONTINUOUS
 62
     7
 10
17.02525036521324
 20
20.44950140890964
 30
0.0
 11
17.02525036521324
 21
21.6697790838829
 31
0.0
  0
ARC
  5
124
  8
0
  6
CONTINUOUS
 62
     7
 10
18.35775036521323
 20
22.65016782884545
 30
0.0
 40
0.2600000000000005
 50
300.0000000000015
 51
119.9999999999994
  0
LINE
  5
125
  8
0
  6
CONTINUOUS
 62
     7
 10
17.31775036521324
 20
21.74950140890964
 30
0.0
 11
18.48775036521324
 21
22.4250012238615
 31
0.0
  0
LINE
  5
126
  8
0
  6
CONTINUOUS
 62
     7
 10
17.31775036521324
 20
20.44950140890964
 30
0.0
 11
17.31775036521324
 21
21.74950140890964
 31
0.0
  0
ARC
  5
127
  8
0
  6
CONTINUOUS
 62
     7
 10
16.92775036521324
 20
20.44950140890964
 30
0.0
 40
0.3900000000000018
 50
180.0
 51
0.0
  0
LINE
  5
128
  8
0
  6
CONTINUOUS
 62
     7
 10
16.53775036521323
 20
21.74950140890964
 30
0.0
 11
16.53775036521323
 21
20.44950140890964
 31
0.0
  0
LINE
  5
129
  8
0
  6
CONTINUOUS
 62
     7
 10
15.36775036521324
 20
22.4250012238615
 30
0.0
 11
16.53775036521323
 21
21.74950140890964
 31
0.0
  0
ARC
  5
12A
  8
0
  6
CONTINUOUS
 62
     7
 10
15.49775036521324
 20
22.65016782884545
 30
0.0
 40
0.2600000000000049
 50
60.00000000000032
 51
240.0000000000006
  0
LINE
  5
12B
  8
0
  6
CONTINUOUS
 62
     7
 10
16.92775036521324
 20
22.1247790838829
 30
0.0
 11
15.62775036521324
 21
22.87533443382942
 31
0.0
  0
LINE
  5
12C
  8
0
  6
CONTINUOUS
 62
     7
 10
18.22775036521324
 20
22.87533443382941
 30
0.0
 11
16.92775036521324
 21
22.1247790838829
 31
0.0
  0
CIRCLE
  5
195
  8
0
 10
15.49775036521324
 20
22.65016782884545
 30
0.0
 40
0.085
  0
CIRCLE
  5
196
  8
0
 10
18.35775036521323
 20
22.65016782884545
 30
0.0
 40
0.085
  0
ENDSEC
  0
EOF
